HIERARCHY
ROOT SpineBase
{
  OFFSET 0.000000 0.000000 0.000000
  CHANNELS 6 Xposition Yposition Zposition Zrotation Xrotation Yrotation
  JOINT SpineMid
  {
    OFFSET -0.000000 30.722037 0.000000
    CHANNELS 3 Zrotation Xrotation Yrotation
    JOINT SpineShoulder
    {
      OFFSET 0.065847 22.893296 -0.803110
      CHANNELS 3 Zrotation Xrotation Yrotation
      JOINT Neck
      {
        OFFSET 0.039105 7.604898 -0.600878
        CHANNELS 3 Zrotation Xrotation Yrotation
        JOINT Head
        {
          OFFSET -5.729878 13.736435 1.905185
          CHANNELS 3 Zrotation Xrotation Yrotation
          End Site
          {
            OFFSET 0 0 0
          }
        }
      }
      JOINT ShoulderLeft
      {
        OFFSET -13.263056 -5.252208 13.454706
        CHANNELS 3 Zrotation Xrotation Yrotation
        JOINT ElbowLeft
        {
          OFFSET -0.847846 -27.962259 -0.663596
          CHANNELS 3 Zrotation Xrotation Yrotation
          JOINT WristLeft
          {
            OFFSET -1.208655 -21.007682 -9.353673
            CHANNELS 3 Zrotation Xrotation Yrotation
            JOINT HandLeft
            {
              OFFSET 1.795050 -4.056159 -2.273835
              CHANNELS 3 Zrotation Xrotation Yrotation
              JOINT HandTipLeft
              {
                OFFSET 0.811814 -6.703639 -1.682778
                CHANNELS 3 Zrotation Xrotation Yrotation
                End Site
                {
                  OFFSET 0 0 0
                }
              }
              JOINT ThumbLeft
              {
                OFFSET 2.245205 1.069671 -3.299245
                CHANNELS 3 Zrotation Xrotation Yrotation
                End Site
                {
                  OFFSET 0 0 0
                }
              }
            }
          }
        }
      }
      JOINT ShoulderRight
      {
        OFFSET 11.334784 -2.677301 -11.343037
        CHANNELS 3 Zrotation Xrotation Yrotation
        JOINT ElbowRight
        {
          OFFSET 6.967240 -21.277654 -5.774873
          CHANNELS 3 Zrotation Xrotation Yrotation
          JOINT WristRight
          {
            OFFSET -6.670069 -21.488554 -3.355166
            CHANNELS 3 Zrotation Xrotation Yrotation
            JOINT HandRight
            {
              OFFSET -2.188687 -4.123379 1.343848
              CHANNELS 3 Zrotation Xrotation Yrotation
              JOINT HandTipRight
              {
                OFFSET -2.627622 -5.987741 -0.981384
                CHANNELS 3 Zrotation Xrotation Yrotation
                End Site
                {
                  OFFSET 0 0 0
                }
              }
              JOINT ThumbRight
              {
                OFFSET -3.008074 1.768114 -1.034467
                CHANNELS 3 Zrotation Xrotation Yrotation
                End Site
                {
                  OFFSET 0 0 0
                }
              }
            }
          }
        }
      }
    }
  }
  JOINT HipLeft
  {
    OFFSET -5.453604 0.052794 1.375379
    CHANNELS 3 Zrotation Xrotation Yrotation
    JOINT KneeLeft
    {
      OFFSET -1.484438 -27.718671 -1.101211
      CHANNELS 3 Zrotation Xrotation Yrotation
      JOINT AnkleLeft
      {
        OFFSET -0.241364 -36.503404 4.758426
        CHANNELS 3 Zrotation Xrotation Yrotation
        JOINT FootLeft
        {
          OFFSET -1.968529 -8.043241 -5.429850
          CHANNELS 3 Zrotation Xrotation Yrotation
          End Site
          {
            OFFSET 0 0 0
          }
        }
      }
    }
  }
  JOINT HipRight
  {
    OFFSET 5.589866 2.224316 -8.342443
    CHANNELS 3 Zrotation Xrotation Yrotation
    JOINT KneeRight
    {
      OFFSET 8.178958 -22.682543 -7.192809
      CHANNELS 3 Zrotation Xrotation Yrotation
      JOINT AnkleRight
      {
        OFFSET 8.380916 -41.130961 9.480553
        CHANNELS 3 Zrotation Xrotation Yrotation
        JOINT FootRight
        {
          OFFSET -8.687718 -2.203497 -12.478515
          CHANNELS 3 Zrotation Xrotation Yrotation
          End Site
          {
            OFFSET 0 0 0
          }
        }
      }
    }
  }
}
MOTION
Frames: 13
Frame Time: 0.033333
-6.738942 67.288676 337.787153 6.875383 -5.439225 32.402707 0.053199 -0.606627 -31.793256 0.118649 -0.240102 0.349398 -0.155972 3.832026 -2.764747 0.000000 0.000000 0.000000 -6.538906 25.440659 -1.024552 -4.285141 13.975513 0.077762 -17.733758 -12.290902 13.394040 15.273457 36.290059 -6.131655 0.000000 0.000000 0.000000 0.000000 0.000000 0.000000 -16.995649 3.954712 2.608589 -71.476129 -8.938345 8.886369 -1.373009 -63.510450 -41.522740 -39.271020 33.431533 51.551597 0.000000 0.000000 0.000000 0.000000 0.000000 0.000000 -24.849338 24.346115 -24.742129 30.156526 -7.734376 1.055687 -20.337904 22.045895 8.592792 0.000000 0.000000 0.000000 -2.294075 13.745247 -29.449716 4.721512 -2.838455 -1.213760 2.598916 -8.876429 -8.187646 0.000000 0.000000 0.000000
-8.158861 65.506304 338.980409 9.264834 -6.558871 29.921647 -0.049421 -0.295193 -29.025455 -0.043511 -0.108837 0.432535 -2.040603 3.897929 -3.130069 0.000000 0.000000 0.000000 -7.060821 27.008396 -1.497975 -7.227284 17.182309 0.442977 -18.364678 -11.672921 14.970979 11.997724 45.277116 -3.712681 0.000000 0.000000 0.000000 0.000000 0.000000 0.000000 -16.045032 4.716101 1.608311 -81.586284 -7.535811 11.146700 5.176954 -68.417017 -44.002740 -56.773954 23.472096 66.071992 0.000000 0.000000 0.000000 0.000000 0.000000 0.000000 -31.338758 26.334502 -19.446613 31.636481 -9.835202 0.686533 -15.209978 25.347809 6.324835 0.000000 0.000000 0.000000 -3.457027 19.377201 -25.217045 7.648854 -6.551976 -1.593025 0.664120 -9.544956 -11.560061 0.000000 0.000000 0.000000
-9.792809 64.249424 340.370262 11.867722 -7.390457 24.613162 -0.259098 -0.028196 -23.386747 -0.239639 0.036338 0.517768 -5.704276 2.934403 -3.388743 0.000000 0.000000 0.000000 -9.585751 27.597553 -1.339081 -6.366846 15.653709 0.356825 -18.197466 -17.212337 11.106579 15.085289 40.121770 -4.701397 0.000000 0.000000 0.000000 0.000000 0.000000 0.000000 -14.399553 3.211421 -0.510509 -86.447006 -7.270582 14.671266 12.880336 -69.376372 -39.206683 -62.570455 18.396310 68.362541 0.000000 0.000000 0.000000 0.000000 0.000000 0.000000 -41.126780 23.541046 -11.423979 33.835404 -8.394454 -0.605972 -13.327268 31.620010 5.702191 0.000000 0.000000 0.000000 -6.236649 23.474229 -18.429642 8.935081 -8.352346 -1.456626 -0.540792 -11.321142 -15.010602 0.000000 0.000000 0.000000
-10.855582 62.951249 341.769733 14.617999 -8.013241 19.175767 0.010249 0.003149 -17.612078 -0.859817 -0.178690 0.671923 -8.253215 2.374870 -3.855895 0.000000 0.000000 0.000000 -11.283708 24.364768 -1.307989 -3.683250 14.364543 -0.726824 -20.556816 -11.484121 13.652178 26.862190 16.030731 -11.366815 0.000000 0.000000 0.000000 0.000000 0.000000 0.000000 -14.287564 1.395973 -2.231362 -84.481154 -9.715214 16.420057 16.263608 -61.054553 -32.714644 -46.941007 17.562300 52.745474 0.000000 0.000000 0.000000 0.000000 0.000000 0.000000 -52.234365 18.276800 -4.046865 38.463036 -5.750370 -2.134888 -6.253659 34.081445 0.445346 0.000000 0.000000 0.000000 -11.748551 26.200583 -10.740597 11.510345 -9.276819 -1.135172 -1.993731 -12.808577 -18.881533 0.000000 0.000000 0.000000
-13.075432 61.485772 343.859800 15.563889 -9.096394 14.385695 0.012725 0.175701 -12.591743 0.123514 0.259658 0.660538 -9.250089 0.072610 -5.074340 0.000000 0.000000 0.000000 -12.716150 20.194989 -1.147537 0.025479 6.681895 -1.820897 -21.671873 -2.565395 15.931854 37.691886 -2.695408 -12.323245 0.000000 0.000000 0.000000 0.000000 0.000000 0.000000 -13.878719 -1.158461 -4.002467 -78.439297 -12.967330 18.112252 7.236682 -45.038668 -31.696139 -24.457660 13.970765 36.961315 0.000000 0.000000 0.000000 0.000000 0.000000 0.000000 -55.449989 13.919585 0.203601 39.337724 -4.608416 -2.737022 -4.425093 38.858978 -1.528052 0.000000 0.000000 0.000000 -12.535280 28.695319 -5.431387 11.321174 -10.548632 -0.401223 -3.512387 -14.485547 -21.590211 0.000000 0.000000 0.000000
-16.071169 59.488980 346.466037 15.401468 -11.032661 7.704597 -0.268599 0.389807 -5.667961 0.741941 0.624960 0.577651 -8.760107 1.722688 -5.079145 0.000000 0.000000 0.000000 -12.941310 14.114587 -0.602934 4.191673 -1.508300 -2.723416 -21.724605 4.569197 15.232242 37.603518 -7.708759 -11.780817 0.000000 0.000000 0.000000 0.000000 0.000000 0.000000 -12.527065 -2.542603 -5.270126 -70.069727 -13.686868 20.277641 -0.502731 -36.297306 -28.401076 -10.042427 14.341364 27.697800 0.000000 0.000000 0.000000 0.000000 0.000000 0.000000 -56.752729 8.546910 5.503911 41.252599 -3.600718 -2.958346 -3.185533 43.563367 -4.505992 0.000000 0.000000 0.000000 -10.868787 33.179713 0.845277 8.398037 -13.259038 0.279449 -4.692652 -16.740136 -25.041346 0.000000 0.000000 0.000000
-19.308292 57.384322 349.145711 13.940813 -13.292178 1.113704 -0.414230 0.554851 1.007107 1.237497 0.926485 0.446221 -7.781336 5.694442 -4.229626 0.000000 0.000000 0.000000 -12.862839 6.583159 0.196019 8.584407 -8.806673 -3.729782 -9.882631 4.980462 0.736445 26.266505 5.575075 -6.327212 0.000000 0.000000 0.000000 0.000000 0.000000 0.000000 -11.753155 -4.958415 -6.404029 -60.759134 -12.388525 23.925159 -10.450144 -28.285480 -26.160965 -0.423251 12.343209 23.831800 0.000000 0.000000 0.000000 0.000000 0.000000 0.000000 -55.273474 4.345221 10.658393 43.316074 -2.988226 -2.714376 -1.361070 43.402639 -8.515213 0.000000 0.000000 0.000000 -6.850876 39.104399 5.555698 3.186810 -15.948170 0.574768 -5.374472 -19.360360 -28.469562 0.000000 0.000000 0.000000
-22.391994 55.255364 351.561528 11.467709 -15.588881 -4.601335 -0.225879 0.788099 6.549862 1.592050 1.088351 0.308560 -6.816209 11.454895 -2.566772 0.000000 0.000000 0.000000 -12.156225 -0.206250 0.837330 11.764640 -14.441358 -4.848010 -1.002910 -21.390295 -28.190163 -0.779094 41.344960 14.155815 0.000000 0.000000 0.000000 0.000000 0.000000 0.000000 -10.750136 -6.775591 -7.295125 -54.611529 -10.566154 26.979774 -14.157061 -25.304998 -23.879173 6.225977 11.472545 19.863018 0.000000 0.000000 0.000000 0.000000 0.000000 0.000000 -52.186666 2.359570 15.591375 46.116255 -2.863547 -1.929469 -0.850937 40.104349 -12.169223 0.000000 0.000000 0.000000 -0.945770 45.806962 7.686136 -3.120162 -18.135193 0.383995 -5.738002 -21.946386 -31.306341 0.000000 0.000000 0.000000
-25.353316 52.816159 353.776012 8.979995 -17.864628 -10.627240 -0.504111 1.161363 12.336791 2.040888 0.958645 0.175830 -6.496847 18.069688 -0.203051 0.000000 0.000000 0.000000 -10.062563 -3.951772 1.103720 12.712800 -19.184595 -5.358505 -8.534236 -30.393368 -39.966080 -11.434471 56.282073 23.807525 0.000000 0.000000 0.000000 0.000000 0.000000 0.000000 -8.839315 -8.213085 -8.401254 -48.749938 -8.463871 29.431131 -16.362923 -22.686893 -20.734052 14.017083 8.077616 14.615178 0.000000 0.000000 0.000000 0.000000 0.000000 0.000000 -50.168700 0.151063 20.995709 50.730371 -2.720430 -1.162226 -0.401780 38.805646 -16.885597 0.000000 0.000000 0.000000 5.244099 53.605017 8.584794 -10.317544 -20.511143 -0.376497 -5.991655 -24.409729 -35.305892 0.000000 0.000000 0.000000
-27.289707 51.448800 354.922279 7.247644 -19.794855 -14.554967 -0.688535 1.102168 16.100718 1.906671 1.202551 0.073966 -8.512753 26.259043 4.169478 0.000000 0.000000 0.000000 -7.720424 -4.748394 1.125299 12.519299 -22.965734 -5.101035 -14.887482 -28.033294 -38.211753 10.314991 63.207714 1.962455 0.000000 0.000000 0.000000 0.000000 0.000000 0.000000 -6.722564 -8.001783 -9.033403 -48.627828 -8.035287 30.831342 -14.835615 -23.730765 -20.156977 20.892985 6.441749 9.443529 0.000000 0.000000 0.000000 0.000000 0.000000 0.000000 -48.560078 -0.409015 24.952071 52.474712 -2.877391 -0.632195 0.718299 37.848859 -19.929512 0.000000 0.000000 0.000000 10.781202 58.092280 6.891550 -15.374041 -20.450649 -0.605826 -6.109499 -26.200475 -38.071490 0.000000 0.000000 0.000000
-28.556375 51.280985 354.963722 5.590217 -20.258463 -15.326504 -0.682598 0.996225 16.575469 1.495600 1.311859 0.046652 -2.655428 36.547347 5.791829 0.000000 0.000000 0.000000 -4.497814 -7.957491 0.997573 10.644835 -20.693362 -5.229649 -18.358751 -24.759008 -31.984471 90.102027 56.059589 -84.254070 0.000000 0.000000 0.000000 0.000000 0.000000 0.000000 -4.962313 -7.446352 -9.042827 -50.882984 -9.669588 31.097349 -14.401419 -27.165559 -21.875337 16.430964 10.367372 11.384397 0.000000 0.000000 0.000000 0.000000 0.000000 0.000000 -45.401703 1.370094 25.695350 50.949739 -3.202772 -0.174067 0.884356 37.819775 -20.681403 0.000000 0.000000 0.000000 18.429095 58.284422 1.524111 -17.861573 -19.301153 0.163286 -6.822619 -26.467034 -38.970967 0.000000 0.000000 0.000000
-28.952968 52.823606 354.780540 5.937698 -19.944077 -13.039835 -0.808597 0.533921 14.400788 0.695790 1.217686 0.133060 -0.734767 40.834306 6.540449 0.000000 0.000000 0.000000 -3.103980 -7.663950 0.861345 8.632144 -17.581305 -4.570432 -19.941840 -22.441171 -25.244692 167.540686 0.487766 -171.126827 0.000000 0.000000 0.000000 0.000000 0.000000 0.000000 -4.294394 -4.617674 -8.108883 -61.204608 -12.318088 29.880392 -20.024825 -26.099414 -30.663691 4.925485 9.060860 25.426150 0.000000 0.000000 0.000000 0.000000 0.000000 0.000000 -42.830101 5.408746 23.887810 45.929530 -4.853552 0.605710 1.098360 38.550217 -19.556834 0.000000 0.000000 0.000000 20.956414 54.250044 -2.064205 -17.038376 -16.381490 1.611984 -7.364311 -26.537494 -38.202009 0.000000 0.000000 0.000000
-28.455209 54.698502 353.971836 5.830697 -18.856557 -9.689891 -0.714065 0.452981 10.964618 0.330052 1.101366 0.175025 -0.004757 39.185367 6.051031 0.000000 0.000000 0.000000 -1.913224 -6.700877 0.639355 7.975987 -20.589000 -3.756070 -21.829037 -15.706060 -16.747571 -156.708425 -14.900053 164.057500 0.000000 0.000000 0.000000 0.000000 0.000000 0.000000 -4.268815 -3.451667 -7.283807 -67.079037 -11.397252 28.758394 -14.355530 -30.665704 -33.684019 -9.021606 9.859451 33.754789 0.000000 0.000000 0.000000 0.000000 0.000000 0.000000 -39.823554 8.030609 20.296360 40.596509 -5.352129 0.361228 1.506203 39.526202 -17.428434 0.000000 0.000000 0.000000 21.849324 48.139379 -4.536875 -15.532889 -12.695353 2.787451 -7.049420 -25.957031 -36.386676 0.000000 0.000000 0.000000
